#!OML:ASF E:\motion texture\Top Level 1\Subject 1\Session 1\male.ASF
:FULLY-SPECIFIED
:DEGREES
209
root 4.38827 17.9919 3.3623 95.9643 -79.9607 -88.4261
lowerback -0.840928 1.13757 6.31565
upperback -1.98871 1.49426 1.96597
thorax -1.46879 0.645812 -1.51664
lowerneck -8.84066 -7.73393 -8.35743
upperneck 15.1924 -11.5266 11.4737
head 7.26096 -5.25189 3.9731
rclavicle 2.6339e-015 2.42517e-014
rhumerus -11.4909 27.4811 -42.0993
rradius 106.748
rwrist 4.85832
rhand -8.06982 -20.3662
rfingers 7.12502
rthumb 17.8417 -49.5678
lclavicle 2.6339e-015 2.42517e-014
lhumerus -34.7932 13.0585 79.1005
lradius 30.4745
lwrist -22.5844
lhand -11.9269 15.9677
lfingers 7.12502
lthumb 14.1274 45.4674
rfemur -2.64183 4.10723 34.9704
rtibia 13.556
rfoot -12.5415 -6.47159
rtoes 15.5719
lfemur -32.0094 1.02184 -2.76911
ltibia 28.3582
lfoot -5.76017 7.0716
ltoes -14.9966
210
root 4.26355 17.9745 3.36321 96.5343 -79.9404 -88.8011
lowerback -0.910698 1.22535 6.27755
upperback -1.98633 1.60518 1.9573
thorax -1.41972 0.70309 -1.50279
lowerneck -9.10645 -7.75937 -8.57351
upperneck 15.0987 -11.4617 11.3532
head 7.27655 -5.2281 3.9668
rclavicle 8.69683e-015 1.94809e-014
rhumerus -13.9163 26.6669 -45.8362
rradius 105.478
rwrist 7.63138
rhand -8.74081 -19.7098
rfingers 7.12502
rthumb 17.1959 -48.9689
lclavicle 8.69683e-015 1.94809e-014
lhumerus -34.6511 13.3292 79.2149
lradius 30.2679
lwrist -23.0549
lhand -11.8249 15.9465
lfingers 7.12502
lthumb 14.2257 45.4393
rfemur -2.42859 4.10123 34.9997
rtibia 13.6191
rfoot -12.7994 -6.44211
rtoes 14.9025
lfemur -31.8488 0.563361 -2.37187
ltibia 25.4628
lfoot -5.14771 7.43615
ltoes -14.8157
211
root 4.13642 17.956 3.36475 97.1702 -79.9174 -89.2431
lowerback -0.993756 1.31501 6.23424
upperback -1.97462 1.71698 1.96393
thorax -1.3542 0.761484 -1.46959
lowerneck -9.36753 -7.78073 -8.79425
upperneck 14.9638 -11.3824 11.2242
head 7.27613 -5.19904 3.96047
rclavicle 2.13694e-015 -7.95139e-016
rhumerus -16.2217 25.5985 -49.4613
rradius 104.087
rwrist 10.1624
rhand -9.47047 -19.2497
rfingers 7.12502
rthumb 16.4935 -48.5686
lclavicle 2.13694e-015 -7.95139e-016
lhumerus -34.5261 13.6666 79.3115
lradius 30.0884
lwrist -23.5771
lhand -11.6758 15.9633
lfingers 7.12502
lthumb 14.3694 45.4459
rfemur -2.21199 4.09581 35.0241
rtibia 13.6952
rfoot -13.0539 -6.39901
rtoes 14.2108
lfemur -31.6435 0.038274 -1.9356
ltibia 22.5774
lfoot -4.68568 7.84448
ltoes -14.7352
212
root 4.00687 17.9364 3.367 97.8484 -79.8953 -89.7277
lowerback -1.08446 1.39968 6.18029
upperback -1.96059 1.82134 1.98511
thorax -1.28348 0.816445 -1.415
lowerneck -9.6105 -7.79338 -9.01785
upperneck 14.7857 -11.2849 11.0892
head 7.25632 -5.16304 3.95564
rclavicle 1.68967e-015 -1.11319e-014
rhumerus -18.3639 24.2996 -52.9358
rradius 102.572
rwrist 12.3587
rhand -10.2768 -18.9597
rfingers 7.12502
rthumb 15.7171 -48.3414
lclavicle 1.68967e-015 -1.11319e-014
lhumerus -34.4534 14.0419 79.3919
lradius 29.973
lwrist -24.087
lhand -11.5 16.0094
lfingers 7.12502
lthumb 14.5388 45.4799
rfemur -1.99281 4.09803 35.0398
rtibia 13.7841
rfoot -13.3083 -6.34933
rtoes 13.5233
lfemur -31.416 -0.543825 -1.47094
ltibia 19.7605
lfoot -4.43382 8.29908
ltoes -14.7683
213
root 3.87516 17.9157 3.37004 98.5581 -79.8734 -90.246
lowerback -1.18563 1.47576 6.11611
upperback -1.94258 1.91314 2.02101
thorax -1.20472 0.865489 -1.33903
lowerneck -9.82208 -7.79327 -9.23909
upperneck 14.5547 -11.1651 10.9486
head 7.21092 -5.11839 3.95255
rclavicle 3.97569e-015 -3.97569e-016
rhumerus -20.312 22.7913 -56.2237
rradius 100.931
rwrist 14.1221
rhand -11.1268 -18.8078
rfingers 7.12502
rthumb 14.8984 -48.2521
lclavicle 3.97569e-015 -3.97569e-016
lhumerus -34.4509 14.4197 79.4631
lradius 29.9462
lwrist -24.5144
lhand -11.336 16.0283
lfingers 7.12502
lthumb 14.6968 45.4874
rfemur -1.77367 4.10057 35.0464
rtibia 13.893
rfoot -13.5655 -6.28519
rtoes 12.8557
lfemur -31.1886 -1.1587 -0.988279
ltibia 17.0763
lfoot -4.40301 8.79069
ltoes -14.9049
214
root 3.74149 17.8941 3.374 99.256 -79.8534 -90.755
lowerback -1.29289 1.53995 6.04995
upperback -1.92315 1.98853 2.06537
thorax -1.12285 0.906365 -1.25291
lowerneck -10.0016 -7.77972 -9.4432
upperneck 14.2727 -11.0242 10.7934
head 7.13929 -5.06542 3.94581
rclavicle -1.44367e-014 -4.13472e-014
rhumerus -22.059 21.0999 -59.309
rradius 99.1554
rwrist 15.3836
rhand -12.0291 -18.8101
rfingers 7.12502
rthumb 14.029 -48.3167
lclavicle -1.44367e-014 -4.13472e-014
lhumerus -34.5171 14.778 79.5233
lradius 30.0017
lwrist -24.8234
lhand -11.214 16.0382
lfingers 7.12502
lthumb 14.8143 45.4887
rfemur -1.55591 4.09556 35.0416
rtibia 14.0237
rfoot -13.8274 -6.20577
rtoes 12.1945
lfemur -30.9864 -1.76805 -0.509035
ltibia 14.5919
lfoot -4.5727 9.29448
ltoes -15.1265
215
root 3.60642 17.8718 3.37896 99.8995 -79.8388 -91.2102
lowerback -1.40349 1.58935 5.97693
upperback -1.90446 2.04394 2.12113
thorax -1.04211 0.937196 -1.15114
lowerneck -10.1499 -7.75016 -9.62459
upperneck 13.9411 -10.8583 10.6101
head 7.04064 -5.00257 3.93056
rclavicle 9.44227e-015 4.57205e-014
rhumerus -23.6139 19.2674 -62.168
rradius 97.2487
rwrist 16.1554
rhand -12.9645 -18.9966
rfingers 7.12502
rthumb 13.1275 -48.5634
lclavicle 9.44227e-015 4.57205e-014
lhumerus -34.649 15.1169 79.5786
lradius 30.1201
lwrist -25.0047
lhand -11.1724 16.0145
lfingers 7.12502
lthumb 14.8544 45.462
rfemur -1.34631 4.07663 35.0215
rtibia 14.1812
rfoot -14.0963 -6.1111
rtoes 11.535
lfemur -30.8422 -2.33485 -0.0566004
ltibia 12.3925
lfoot -4.91571 9.76411
ltoes -15.3884
216
root 3.47034 17.849 3.38518 100.449 -79.8279 -91.5754
lowerback -1.51227 1.62729 5.90971
upperback -1.88701 2.08421 2.18325
thorax -0.964935 0.960143 -1.04614
lowerneck -10.267 -7.70775 -9.77076
upperneck 13.5636 -10.6741 10.3908
head 6.91611 -4.93286 3.9014
rclavicle 7.85199e-015 -9.54166e-015
rhumerus -25.0027 17.305 -64.7944
rradius 95.2119
rwrist 16.4933
rhand -13.8851 -19.3763
rfingers 7.12502
rthumb 12.2399 -48.9981
lclavicle 7.85199e-015 -9.54166e-015
lhumerus -34.8435 15.3891 79.6384
lradius 30.2908
lwrist -25.0379
lhand -11.1997 15.9619
lfingers 7.12502
lthumb 14.8281 45.4114
rfemur -1.14466 4.04007 34.9886
rtibia 14.3696
rfoot -14.369 -6.00275
rtoes 10.8722
lfemur -30.7812 -2.81734 0.344612
ltibia 10.5711
lfoot -5.37863 10.1639
ltoes -15.6754
217
root 3.33389 17.8258 3.39277 100.84 -79.8216 -91.786
lowerback -1.608 1.6531 5.85044
upperback -1.87541 2.1095 2.25269
thorax -0.90221 0.974921 -0.938602
lowerneck -10.3569 -7.65434 -9.88037
upperneck 13.1488 -10.4753 10.1287
head 6.76948 -4.85798 3.85543
rclavicle 3.52843e-015 -2.34566e-014
rhumerus -26.2487 15.2264 -67.1744
rradius 93.0607
rwrist 16.4946
rhand -14.7124 -19.9376
rfingers 7.12502
rthumb 11.4422 -49.6054
lclavicle 3.52843e-015 -2.34566e-014
lhumerus -35.0678 15.6276 79.7004
lradius 30.4556
lwrist -24.9865
lhand -11.2942 15.9023
lfingers 7.12502
lthumb 14.7371 45.3584
rfemur -0.957924 3.99066 34.9452
rtibia 14.5962
rfoot -14.6464 -5.89046
rtoes 10.1884
lfemur -30.8383 -3.16982 0.662493
ltibia 9.22923
lfoot -5.89753 10.4381
ltoes -15.9728
218
root 3.19725 17.8025 3.40196 101.038 -79.8151 -91.8108
lowerback -1.68112 1.66731 5.81205
upperback -1.87168 2.12118 2.32761
thorax -0.860704 0.981883 -0.837955
lowerneck -10.424 -7.59099 -9.9586
upperneck 12.7081 -10.2664 9.83474
head 6.60695 -4.77928 3.79639
rclavicle 3.40419e-015 1.19271e-014
rhumerus -27.3703 13.0445 -69.3013
rradius 90.8153
rwrist 16.2599
rhand -15.3707 -20.6302
rfingers 7.12502
rthumb 10.8072 -50.3321
lclavicle 3.40419e-015 1.19271e-014
lhumerus -35.3294 15.8185 79.764
lradius 30.6149
lwrist -24.878
lhand -11.4015 15.8491
lfingers 7.12502
lthumb 14.6337 45.3128
rfemur -0.78559 3.93423 34.8991
rtibia 14.8704
rfoot -14.9338 -5.78361
rtoes 9.44958
lfemur -31.0294 -3.34441 0.867492
ltibia 8.44284
lfoot -6.39209 10.5414
ltoes -16.205
219
root 3.06037 17.7793 3.41272 101.043 -79.8063 -91.6611
lowerback -1.73341 1.6718 5.79402
upperback -1.86578 2.12115 2.40799
thorax -0.828882 0.982497 -0.743748
lowerneck -10.4727 -7.52039 -10.0063
upperneck 12.2406 -10.0535 9.52071
head 6.43067 -4.69862 3.72748
rclavicle -3.2551e-015 1.86858e-014
rhumerus -28.3737 10.7645 -71.1718
rradius 88.5092
rwrist 15.8656
rhand -15.8039 -21.3774
rfingers 7.12502
rthumb 10.3894 -51.1007
lclavicle -3.2551e-015 1.86858e-014
lhumerus -35.5947 15.9871 79.8278
lradius 30.7289
lwrist -24.7509
lhand -11.4846 15.8222
lfingers 7.12502
lthumb 14.5536 45.2916
rfemur -0.624334 3.89263 34.8575
rtibia 15.2026
rfoot -15.2272 -5.70063
rtoes 8.62001
lfemur -31.3504 -3.30794 0.933588
ltibia 8.2426
lfoot -6.78316 10.4558
ltoes -16.3263
